P3
25 25
255
237
240
225
240
242
230
237
241
228
237
241
228
237
241
228
238
241
227
237
240
227
237
241
228
237
241
227
237
241
228
238
241
228
237
241
228
237
240
227
242
243
232
238
242
230
130
176
113
92
154
79
119
171
105
147
199
132
177
221
164
171
217
160
167
216
155
170
217
160
154
213
140
201
227
192
225
232
216
229
234
222
227
233
219
227
233
218
226
232
217
226
232
217
237
244
231
255
255
247
255
255
250
255
255
248
235
243
234
226
234
230
230
241
240
237
245
246
231
241
240
206
227
217
139
182
133
98
159
78
177
219
166
179
221
166
168
216
152
155
213
142
177
222
169
204
229
197
229
234
220
229
234
221
233
236
223
230
234
220
227
232
217
246
251
239
255
255
255
233
235
217
182
187
170
144
155
148
163
173
162
243
244
213
255
255
222
251
243
189
242
233
176
248
240
184
255
255
239
255
255
229
187
220
196
238
238
245
197
225
184
156
212
143
170
216
160
180
219
169
242
243
234
235
236
226
229
233
220
232
235
220
228
232
216
255
255
255
238
241
226
122
127
109
18
33
28
7
22
1
59
61
7
87
81
14
119
112
46
107
108
47
77
77
19
67
66
13
62
60
6
79
73
16
146
135
74
244
229
168
255
255
252
225
241
236
208
227
198
232
235
226
181
207
167
236
240
226
236
239
230
229
237
222
230
235
218
255
255
254
207
211
193
30
40
27
0
0
0
56
61
10
110
104
34
95
92
34
53
59
23
0
10
0
0
0
0
0
2
0
0
0
0
3
27
20
16
45
36
1
23
8
16
18
0
146
137
56
255
255
220
251
251
255
251
245
242
154
190
135
172
199
149
248
245
239
230
228
217
252
255
248
224
223
208
6
19
6
0
0
0
114
109
40
113
107
38
38
50
25
0
0
0
0
0
0
18
34
17
36
57
36
21
37
21
77
108
75
121
161
116
69
93
66
55
79
51
25
52
42
0
0
0
126
118
37
255
255
238
174
205
174
104
162
81
97
154
75
164
195
145
250
193
198
255
234
233
65
79
69
1
9
0
130
123
44
82
83
30
0
14
11
0
1
0
34
53
33
102
136
98
148
191
139
166
213
156
158
202
149
179
227
164
174
224
162
148
191
138
112
148
105
98
132
92
30
52
37
0
0
0
154
154
75
130
188
105
101
159
85
120
173
105
147
200
136
255
211
218
190
167
161
0
24
3
118
113
35
69
74
31
0
7
7
1
13
0
84
114
80
175
222
164
204
254
185
188
238
172
179
225
161
181
228
163
174
220
158
169
217
154
179
230
163
194
249
180
182
231
171
122
160
114
0
4
5
46
52
3
170
194
115
114
168
111
138
191
119
183
228
169
255
255
249
108
125
117
70
68
0
78
82
34
0
13
11
4
16
3
112
145
104
207
255
189
183
232
165
170
213
153
171
216
154
169
215
154
169
214
153
167
214
151
167
215
153
169
215
156
169
215
154
169
220
152
195
249
180
56
84
60
0
0
0
190
192
145
191
237
187
162
213
147
172
218
158
248
240
240
150
158
109
67
65
2
4
25
21
1
11
0
97
132
92
208
255
189
178
221
159
166
212
152
171
216
156
175
221
157
170
216
155
169
214
154
168
215
151
168
215
153
168
215
154
175
220
158
153
201
139
166
218
146
158
202
149
7
16
7
121
146
81
199
253
183
175
222
160
167
214
154
253
234
232
169
172
108
10
23
0
0
9
1
58
81
54
195
245
177
177
224
160
169
213
153
171
216
157
170
215
155
157
199
139
169
214
152
172
217
156
169
215
154
168
215
152
169
217
153
169
216
153
172
217
158
148
197
133
199
252
183
77
101
64
106
127
77
193
246
179
163
215
148
162
213
147
255
226
199
98
102
46
0
9
4
13
26
10
141
179
129
201
249
181
155
202
139
164
210
148
178
226
165
146
185
131
130
168
117
173
219
155
166
212
148
169
215
152
169
217
155
169
216
153
173
219
158
164
213
148
147
199
131
199
249
186
103
125
82
156
158
131
187
242
180
179
220
167
187
221
177
228
182
143
29
44
0
0
12
5
52
76
45
184
230
167
177
222
161
149
199
134
162
209
147
174
219
161
165
209
152
179
223
161
156
207
138
149
197
134
175
220
159
176
222
163
155
199
137
153
206
135
173
219
157
195
233
182
172
222
161
143
186
128
213
218
197
226
239
221
230
237
222
235
237
229
181
149
112
3
29
0
0
0
0
77
106
67
198
248
181
171
215
157
147
197
131
165
210
149
167
212
152
171
215
154
162
215
142
209
240
194
217
244
208
162
215
145
147
195
127
123
177
103
183
224
169
197
205
187
179
194
168
171
220
157
175
222
162
195
233
184
239
238
230
236
238
226
232
237
225
162
144
106
0
5
0
10
23
10
146
187
133
189
236
168
169
214
154
148
197
132
167
211
148
173
218
157
146
199
127
160
203
142
163
159
150
179
205
159
162
213
146
123
179
105
148
203
135
255
255
255
166
155
161
92
111
78
191
241
175
209
228
197
177
220
165
211
231
202
246
244
238
218
229
209
174
170
127
6
9
4
124
163
116
210
255
190
172
217
155
166
211
148
148
196
131
178
221
161
168
214
147
164
211
142
161
171
150
0
4
0
40
61
28
240
245
231
224
243
221
243
250
236
255
255
255
160
162
155
77
92
60
180
226
160
182
227
171
180
220
170
229
236
222
244
244
236
213
226
205
27
39
15
11
27
2
164
207
146
157
202
144
173
217
156
142
190
120
144
193
127
169
213
152
140
192
122
175
215
157
246
233
229
89
92
83
0
0
0
216
214
204
255
255
255
255
255
252
254
254
251
228
228
221
170
169
157
166
200
145
152
211
137
210
231
203
243
241
236
230
236
219
233
237
225
140
155
143
75
102
74
38
52
20
31
46
21
128
167
121
172
221
152
151
199
135
160
206
144
167
214
154
165
215
149
241
255
215
162
151
141
10
16
9
223
221
207
255
255
255
252
251
242
252
250
239
255
255
255
255
255
255
160
186
134
133
191
116
233
242
225
238
239
232
232
238
222
236
237
222
255
255
250
202
255
195
116
141
78
122
92
0
133
171
123
195
247
192
152
200
131
143
190
121
184
227
167
175
218
156
160
216
141
183
213
157
217
207
191
255
247
241
252
251
242
253
253
243
255
254
249
255
255
255
221
230
201
106
160
81
143
198
129
226
242
236
238
240
236
240
242
221
207
226
223
233
234
224
209
244
192
113
172
126
184
163
41
248
245
109
150
217
187
147
201
143
132
180
111
148
194
126
171
214
150
167
213
151
165
221
147
255
255
244
255
249
248
255
255
255
255
255
255
244
244
234
187
220
178
100
171
89
110
187
112
187
225
167
241
232
169
239
238
214
226
235
229
193
219
224
233
238
224
239
236
228
187
225
193
162
211
142
234
220
70
229
222
88
175
221
163
168
218
170
118
166
94
155
199
133
175
222
162
159
214
143
206
215
181
255
255
255
232
237
225
184
206
171
204
224
192
176
176
144
178
159
134
202
191
176
231
230
204
250
235
142
238
236
194
214
231
236
201
223
222
228
231
230
251
247
249
208
229
204
158
218
176
168
217
176
201
197
53
223
214
77
133
189
123
109
164
93
168
212
151
189
240
168
159
196
144
0
21
8
132
138
136
39
58
53
83
114
50
249
252
237
255
211
223
242
162
176
240
167
178
255
241
245
245
251
238
239
238
215
229
235
222
201
223
220
250
227
125
249
244
213
220
231
170
218
225
159
194
214
178
139
192
179
235
220
95
167
188
112
149
193
151
185
233
170
168
198
161
99
94
54
45
44
9
26
39
0
75
74
14
69
61
5
164
166
154
255
255
255
255
255
255
255
255
255
255
255
243
230
240
235
207
225
223
212
227
222
185
214
221
208
209
104
166
201
171
217
226
177
247
240
191
233
224
141
251
241
189
255
245
137
249
237
200
236
249
249
196
250
195
209
239
231
126
129
100
106
95
19
88
88
35
226
195
58
36
44
0
86
101
97
255
255
255
208
205
164
158
154
108
52
57
35
158
182
181
217
242
254
202
222
219
187
214
221
178
199
146
123
158
42
202
216
175
255
255
255
249
251
207
206
185
36
78
75
27
198
202
183
252
238
234
217
192
179
226
202
211
255
241
140
240
214
30
191
184
53
169
149
47
23
33
15
22
38
23
98
106
86
22
36
7
0
3
0
0
0
0
61
73
52
245
243
229
255
252
232
224
232
220
